<svg xmlns="http://www.w3.org/2000/svg" width="200" height="200"><path d="m 195.71428,99.64286 a 95.35714,95.35714 0 1 1 -190.71428,0 95.35714,95.35714 0 1 1 190.71428,0 z" transform="translate(0 1.071)" fill="#b2e5e8"/><path d="m -10.160668,994.46279 c 0,-53.32637 43.229554,-96.55592 96.555914,-96.55592 2e-4,0 4.1e-4,0 6.1e-4,0 53.326074,3.3e-4 96.555304,43.22976 96.555304,96.55592" opacity=".149" fill="none" stroke="#4c4c4c" stroke-width="1.163" transform="translate(13.517 -892.34)"/><path d="M 152.41002,924.897 87.135962,991.72775" fill="none" stroke="#e36a5c" stroke-width="2.5" stroke-linecap="round" stroke-linejoin="round" transform="translate(13.517 -892.34)"/><path d="m -10.16067,994.46277 c 0,-53.32637 43.229546,-96.55591 96.555916,-96.55591 53.326354,0 96.555914,43.22954 96.555914,96.55591" fill="none" stroke="#4c4c4c" stroke-width="3" transform="translate(13.517 -892.34)"/><text style="line-height:125%" x="101.415" y="968.527" font-size="16" font-weight="400" letter-spacing="0" word-spacing="0" fill="#e36a5c" font-family="Sans" transform="translate(13.517 -892.34)"><tspan x="101.415" y="968.527" style="-inkscape-font-specification:Sans Bold" font-size="14" font-weight="700">r</tspan></text><path d="m -9.2981252,992.8891 c 0,-53.04908 43.0047772,-96.05386 96.0538612,-96.05386 1.97e-4,0 4.05e-4,0 6.02e-4,0 53.048792,3.3e-4 96.053262,43.00499 96.053262,96.05386" opacity=".149" fill="none" stroke="#4c4c4c" stroke-width="1.157" transform="translate(13.517 -892.34)"/><path d="m -9.2981252,992.81272 c 0,-46.41785 43.0047772,-84.04704 96.0538612,-84.04704 1.85e-4,0 3.82e-4,0 5.67e-4,0 53.048817,3.1e-4 96.053297,37.62937 96.053297,84.04704" opacity=".149" fill="none" stroke="#4c4c4c" stroke-width="1.157" transform="translate(13.517 -892.34)"/><path d="m -9.2981252,992.73634 c 0,-39.78664 43.0047772,-72.04021 96.0538612,-72.04021 1.74e-4,0 3.47e-4,0 5.33e-4,0 53.048831,2.9e-4 96.053331,32.25376 96.053331,72.04021" opacity=".149" fill="none" stroke="#4c4c4c" stroke-width="1.157" transform="translate(13.517 -892.34)"/><path d="m -9.2981252,992.65996 c 0,-33.15541 43.0047772,-60.03339 96.0538612,-60.03339 1.62e-4,0 3.24e-4,0 4.86e-4,0 53.048858,2.6e-4 96.053378,26.87814 96.053378,60.03339" opacity=".149" fill="none" stroke="#4c4c4c" stroke-width="1.157" transform="translate(13.517 -892.34)"/><path d="m -9.2981252,992.58358 c 0,-26.52419 43.0047772,-48.02658 96.0538612,-48.02658 1.51e-4,0 3.01e-4,0 4.52e-4,0 53.048862,2.5e-4 96.053412,21.50254 96.053412,48.02658" opacity=".149" fill="none" stroke="#4c4c4c" stroke-width="1.157" transform="translate(13.517 -892.34)"/><path d="m -9.2981252,992.5072 c 0,-19.89297 43.0047772,-36.01976 96.0538612,-36.01976 1.39e-4,0 2.78e-4,0 4.17e-4,0 53.048887,2.3e-4 96.053447,16.12692 96.053447,36.01976" fill="none" stroke="#4c4c4c" stroke-width="1.157" stroke-dasharray="4.628,4.628" transform="translate(13.517 -892.34)"/><path d="m -9.2981252,992.43084 c 0,-13.26177 43.0047772,-24.01296 96.0538612,-24.01296 1.28e-4,0 2.55e-4,0 3.82e-4,0 53.048902,2.1e-4 96.053482,10.75132 96.053482,24.01296" opacity=".149" fill="none" stroke="#4c4c4c" stroke-width="1.157" transform="translate(13.517 -892.34)"/><path d="m -9.2981252,992.35446 c 0,-6.63055 43.0047772,-12.00614 96.0538612,-12.00614 1.16e-4,0 2.32e-4,0 3.36e-4,0 53.048928,1.8e-4 96.053528,5.37571 96.053528,12.00614" opacity=".149" fill="none" stroke="#4c4c4c" stroke-width="1.157" transform="translate(13.517 -892.34)"/><path d="m -9.2981252,992.27808 c 0,6.8e-4 43.0047772,6.8e-4 96.0538612,6.8e-4 1.04e-4,0 1.97e-4,0 3.01e-4,0 53.048933,1.6e-4 96.053563,9e-5 96.053563,-6.8e-4" opacity=".149" fill="none" stroke="#4c4c4c" stroke-width="1.157" transform="translate(13.517 -892.34)"/><path d="m -9.2981252,992.2017 c 0,6.6319 43.0047772,12.0075 96.0538612,12.0075 9.3e-5,0 1.74e-4,0 2.66e-4,0 53.048948,2e-4 96.053598,-5.37551 96.053598,-12.0075" opacity=".149" fill="none" stroke="#4c4c4c" stroke-width="1.157" transform="translate(13.517 -892.34)"/><path d="m 85.781666,897.29332 c 53.326374,0 96.555924,43.22955 96.555924,96.55592 0,1.9e-4 0,4e-4 0,6e-4 -3.3e-4,53.32606 -43.22976,96.55536 -96.555924,96.55536" opacity=".149" fill="none" stroke="#4c4c4c" stroke-width="1.163" transform="translate(13.517 -892.34)"/><path d="m 87.010106,897.29332 c -53.32772,0 -96.557281,43.22955 -96.557281,96.55592 0,0 0,0 0,0 0,53.32636 43.229561,96.55596 96.557281,96.55596" opacity=".149" fill="none" stroke="#4c4c4c" stroke-width="1.163" transform="translate(13.517 -892.34)"/><path d="m -10.160668,993.23435 c 0,53.32775 43.229554,96.55735 96.555914,96.55735 0,0 0,0 0,0 53.326354,0 96.555914,-43.2296 96.555914,-96.55735" opacity=".149" fill="none" stroke="#4c4c4c" stroke-width="1.163" transform="translate(13.517 -892.34)"/><path d="m -10.166432,993.60738 c 0,52.91572 43.232126,95.81122 96.561678,95.81122 53.329534,0 96.561674,-42.8955 96.561674,-95.81122" fill="none" stroke="#4c4c4c" stroke-width="2.988" transform="translate(13.517 -892.34)"/><path d="m 86.144153,897.11641 c 53.050557,0 96.056527,42.80551 96.056527,95.60877 0,2e-4 0,4.1e-4 0,6.1e-4 -3.3e-4,52.80301 -43.00618,95.60811 -96.056527,95.60811" opacity=".149" fill="none" stroke="#4c4c4c" stroke-width="1.155" transform="translate(13.517 -892.34)"/><path d="m 86.221857,897.22785 c 46.418693,0 84.048553,42.7806 84.048553,95.55313 0,1.9e-4 0,3.9e-4 0,5.7e-4 -3.1e-4,52.77225 -37.63004,95.55255 -84.048553,95.55255" opacity=".149" fill="none" stroke="#4c4c4c" stroke-width="1.154" transform="translate(13.517 -892.34)"/><path d="m 86.298238,897.22785 c 39.787362,0 72.041512,42.7806 72.041512,95.55313 0,1.8e-4 0,3.5e-4 0,5.4e-4 -2.9e-4,52.77228 -32.25434,95.55258 -72.041512,95.55258" opacity=".149" fill="none" stroke="#4c4c4c" stroke-width="1.154" transform="translate(13.517 -892.34)"/><path d="m 86.374619,897.22785 c 33.156011,0 60.034471,42.7806 60.034471,95.55313 0,1.7e-4 0,3.3e-4 0,4.9e-4 -2.6e-4,52.77233 -26.87862,95.55263 -60.034471,95.55263" opacity=".149" fill="none" stroke="#4c4c4c" stroke-width="1.154" transform="translate(13.517 -892.34)"/><path d="m 86.451001,897.22785 c 26.524669,0 48.027449,42.7806 48.027449,95.55313 0,1.5e-4 0,3e-4 0,4.5e-4 -2.5e-4,52.77237 -21.50293,95.55267 -48.027449,95.55267" opacity=".149" fill="none" stroke="#4c4c4c" stroke-width="1.154" transform="translate(13.517 -892.34)"/><path d="m 86.527373,896.85435 c 19.894027,0 36.021657,42.72296 36.021657,95.4244 0,1.4e-4 0,2.8e-4 0,4.2e-4 -2.3e-4,52.70133 -16.12776,95.42393 -36.021657,95.42393" fill="none" stroke="#4c4c4c" stroke-width="1.154" transform="translate(13.517 -892.34)"/><path d="m 86.603751,897.22785 c 13.262001,0 24.013389,42.7806 24.013389,95.55313 0,1.3e-4 0,2.6e-4 0,3.9e-4 -2.1e-4,52.77233 -10.751515,95.55273 -24.013389,95.55273" opacity=".149" fill="none" stroke="#4c4c4c" stroke-width="1.154" transform="translate(13.517 -892.34)"/><path d="m 86.680132,897.22785 c 6.630665,0 12.006354,42.7806 12.006354,95.55313 0,1.2e-4 0,2.3e-4 0,3.4e-4 -1.85e-4,52.77238 -5.375805,95.55278 -12.006354,95.55278" opacity=".149" fill="none" stroke="#4c4c4c" stroke-width="1.154" transform="translate(13.517 -892.34)"/><path d="m 86.756513,896.22489 c -6.83e-4,0 -6.83e-4,43.00478 -6.83e-4,96.05386 0,1.1e-4 0,2e-4 0,3e-4 -1.62e-4,53.04895 -9.2e-5,96.05355 6.83e-4,96.05355" opacity=".149" fill="none" stroke="#4c4c4c" stroke-width="1.157" transform="translate(13.517 -892.34)"/><path d="m 86.832894,897.22785 c -6.632019,0 -12.007685,42.7806 -12.007685,95.55313 0,10e-5 0,1.8e-4 0,2.7e-4 -2.31e-4,52.77245 5.375574,95.55285 12.007685,95.55285" opacity=".149" fill="none" stroke="#4c4c4c" stroke-width="1.154" transform="translate(13.517 -892.34)"/><path d="m 86.909275,897.22785 c -13.263343,0 -24.014791,42.7806 -24.014791,95.55313 0,7e-5 0,1.5e-4 0,2.3e-4 -1.16e-4,52.77249 10.751332,95.55289 24.014791,95.55289" opacity=".149" fill="none" stroke="#4c4c4c" stroke-width="1.154" transform="translate(13.517 -892.34)"/><path d="m 86.985664,896.85435 c -19.895415,0 -36.023029,42.72296 -36.023029,95.4244 0,6e-5 0,1.3e-4 0,1.9e-4 -1.16e-4,52.70136 16.127614,95.42416 36.023029,95.42416" fill="none" stroke="#4c4c4c" stroke-width="1.154" stroke-dasharray="3.46050149,3.46050149" transform="translate(13.517 -892.34)"/><path d="m 87.062038,897.22785 c -26.525993,0 -48.028774,42.7806 -48.028774,95.55313 0,5e-5 0,1.1e-4 0,1.5e-4 -1.15e-4,52.77247 21.502665,95.55297 48.028774,95.55297" opacity=".149" fill="none" stroke="#4c4c4c" stroke-width="1.154" transform="translate(13.517 -892.34)"/><path d="m 87.138407,897.22785 c -33.157365,0 -60.035868,42.7806 -60.035868,95.55313 0,4e-5 0,8e-5 0,1.2e-4 0,52.7725 26.878503,95.553 60.035868,95.553" opacity=".149" fill="none" stroke="#4c4c4c" stroke-width="1.154" transform="translate(13.517 -892.34)"/><path d="m 87.214788,897.22785 c -39.788747,0 -72.042859,42.7806 -72.042859,95.55313 0,3e-5 0,5e-5 0,8e-5 -1.15e-4,52.77254 32.254112,95.55304 72.042859,95.55304" opacity=".149" fill="none" stroke="#4c4c4c" stroke-width="1.154" transform="translate(13.517 -892.34)"/><path d="m 87.291169,897.22785 c -46.420014,0 -84.0499649,42.7806 -84.0499649,95.55313 0,10e-6 0,3e-5 0,4e-5 0,52.77258 37.6299509,95.55308 84.0499649,95.55308" opacity=".149" fill="none" stroke="#4c4c4c" stroke-width="1.154" transform="translate(13.517 -892.34)"/><path d="m 87.368473,896.84896 c -53.051472,0 -96.0570922,42.86528 -96.0570922,95.74229 0,0 0,0 0,0 0,52.87695 43.0056202,95.74225 96.0570922,95.74225" opacity=".149" fill="none" stroke="#4c4c4c" stroke-width="1.155" transform="translate(13.517 -892.34)"/><path d="m -9.2981252,992.12532 c 0,13.26308 43.0047772,24.01438 96.0538612,24.01438 7e-5,0 1.51e-4,0 2.32e-4,0 53.048972,1e-4 96.053632,-10.7512 96.053632,-24.01438" opacity=".149" fill="none" stroke="#4c4c4c" stroke-width="1.157" transform="translate(13.517 -892.34)"/><path d="m -9.2981252,992.04894 c 0,19.89436 43.0047772,36.02116 96.0538612,36.02116 5.8e-5,0 1.28e-4,0 1.85e-4,0 53.048999,1e-4 96.053679,-16.1268 96.053679,-36.02116" fill="none" stroke="#4c4c4c" stroke-width="1.157" transform="translate(13.517 -892.34)"/><path d="m -9.2981252,991.97256 c 0,26.52554 43.0047772,48.02794 96.0538612,48.02794 4.7e-5,0 1.04e-4,0 1.51e-4,0 53.049003,10e-5 96.053713,-21.5023 96.053713,-48.02794" opacity=".149" fill="none" stroke="#4c4c4c" stroke-width="1.157" transform="translate(13.517 -892.34)"/><path d="m -9.2981252,991.89619 c 0,33.15681 43.0047772,60.03481 96.0538612,60.03481 3.5e-5,0 8.1e-5,0 1.16e-4,0 53.049018,0 96.053748,-26.878 96.053748,-60.03481" opacity=".149" fill="none" stroke="#4c4c4c" stroke-width="1.157" transform="translate(13.517 -892.34)"/><path d="m -9.2981252,991.81981 c 0,39.78799 43.0047772,72.04159 96.0538612,72.04159 2.3e-5,0 4.7e-5,0 8.1e-5,0 53.049043,10e-5 96.053783,-32.2536 96.053783,-72.04159" opacity=".149" fill="none" stroke="#4c4c4c" stroke-width="1.157" transform="translate(13.517 -892.34)"/><path d="m -9.2981252,991.74343 c 0,46.41917 43.0047772,84.04847 96.0538612,84.04847 1.2e-5,0 2.3e-5,0 3.5e-5,0 53.049059,0 96.053829,-37.6293 96.053829,-84.04847" opacity=".149" fill="none" stroke="#4c4c4c" stroke-width="1.157" transform="translate(13.517 -892.34)"/><path d="m -9.2981252,991.66705 c 0,53.05045 43.0047772,96.05525 96.0538612,96.05525 0,0 0,0 0,0 53.049074,0 96.053864,-43.0048 96.053864,-96.05525" opacity=".149" fill="none" stroke="#4c4c4c" stroke-width="1.157" transform="translate(13.517 -892.34)"/><path d="m 134.28571,35.535713 a 3.0357144,3.0357144 0 1 1 -6.07142,0 3.0357144,3.0357144 0 1 1 6.07142,0 z" transform="matrix(.90332 0 0 .90332 -18.313 67.237)" fill="#e36a5c" stroke="#4c4c4c" stroke-width="2.437"/></svg>